<svg width="24" height="24" viewBox="0 0 24 24" fill="none" xmlns="http://www.w3.org/2000/svg">
<path fill-rule="evenodd" clip-rule="evenodd" d="M3 4C2.44772 4 2 4.44772 2 5V18.1315C2 18.9302 2.89014 19.4066 3.5547 18.9635L7.74808 16.1679C7.91234 16.0584 8.10535 16 8.30278 16H21C21.5523 16 22 15.5523 22 15V5C22 4.44772 21.5523 4 21 4H3ZM10 9C10.5523 9 11 8.55228 11 8C11 7.44772 10.5523 7 10 7C9.44771 7 9 7.44772 9 8C9 8.55228 9.44771 9 10 9ZM14.4807 11.138C14.5895 11.052 14.7224 11 14.8611 11C15.3303 11 15.578 11.5237 15.2192 11.826C14.3494 12.5586 13.2262 13 12 13C10.7738 13 9.65065 12.5586 8.78085 11.826C8.422 11.5237 8.66976 11 9.13894 11C9.27764 11 9.41054 11.052 9.51929 11.138C10.2011 11.6778 11.0629 12 12 12C12.9371 12 13.7989 11.6778 14.4807 11.138ZM15 8C15 8.55228 14.5523 9 14 9C13.4477 9 13 8.55228 13 8C13 7.44772 13.4477 7 14 7C14.5523 7 15 7.44772 15 8Z" fill="black"/>
</svg>
