<svg width="24" height="24" viewBox="0 0 24 24" fill="none" xmlns="http://www.w3.org/2000/svg">
<path fill-rule="evenodd" clip-rule="evenodd" d="M11.6253 10V10.7857C11.6253 11.0619 11.4014 11.2857 11.1253 11.2857C10.8491 11.2857 10.6253 11.0619 10.6253 10.7857V10V7C10.6253 6.44772 10.1775 6 9.62525 6C9.07297 6 8.62525 6.44772 8.62525 7V10V11V12.8418L7.37282 11.4128C6.88144 10.8522 6.14267 10.6452 5.458 10.8763C5.0173 11.025 4.85401 11.621 5.14936 12.0029L8.79456 16.7155C8.92235 16.8807 9.07065 17.0154 9.232 17.119C9.93894 18.2487 11.1944 19 12.6253 19H15.6253C17.8344 19 19.6253 17.2091 19.6253 15V11V10V7.8C19.6253 7.35817 19.1775 7 18.6253 7C18.073 7 17.6253 7.35817 17.6253 7.8V10V10.7857C17.6253 11.0619 17.4014 11.2857 17.1253 11.2857C16.8491 11.2857 16.6253 11.0619 16.6253 10.7857V10V6.6C16.6253 5.99249 16.1775 5.5 15.6253 5.5C15.073 5.5 14.6253 5.99249 14.6253 6.6V10V10.7857C14.6253 11.0619 14.4014 11.2857 14.1253 11.2857C13.8491 11.2857 13.6253 11.0619 13.6253 10.7857V10V6.2C13.6253 5.53726 13.1775 5 12.6253 5C12.073 5 11.6253 5.53726 11.6253 6.2V10Z" fill="black"/>
</svg>
