<svg width="24" height="24" viewBox="0 0 24 24" fill="none" xmlns="http://www.w3.org/2000/svg">
<path fill-rule="evenodd" clip-rule="evenodd" d="M10 5C10 4.44772 10.4477 4 11 4H13C13.5523 4 14 4.44772 14 5V7C14 7.55228 13.5523 8 13 8H11C10.4477 8 10 7.55228 10 7V5ZM10 11C10 10.4477 10.4477 10 11 10H13C13.5523 10 14 10.4477 14 11V13C14 13.5523 13.5523 14 13 14H11C10.4477 14 10 13.5523 10 13V11ZM11 16C10.4477 16 10 16.4477 10 17V19C10 19.5523 10.4477 20 11 20H13C13.5523 20 14 19.5523 14 19V17C14 16.4477 13.5523 16 13 16H11Z" fill="black"/>
</svg>
