<svg width="24" height="24" viewBox="0 0 24 24" fill="none" xmlns="http://www.w3.org/2000/svg">
<path fill-rule="evenodd" clip-rule="evenodd" d="M12 16C8.88089 16 6.13123 14.4137 4.51541 12C6.13123 9.58625 8.88089 8 12 8C15.1191 8 17.8688 9.58625 19.4846 12C17.8688 14.4137 15.1191 16 12 16ZM12 7C15.7014 7 18.9331 9.011 20.6622 12C18.9331 14.989 15.7014 17 12 17C8.2986 17 5.06688 14.989 3.33783 12C5.06688 9.01099 8.2986 7 12 7ZM14 12C14 13.1046 13.1046 14 12 14C10.8954 14 10 13.1046 10 12C10 10.8954 10.8954 10 12 10C13.1046 10 14 10.8954 14 12ZM15 12C15 13.6569 13.6569 15 12 15C10.3431 15 9 13.6569 9 12C9 10.3431 10.3431 9 12 9C13.6569 9 15 10.3431 15 12Z" fill="black"/>
</svg>
